<svg width="1464" height="747" viewBox="0 0 1464 747" fill="none" xmlns="http://www.w3.org/2000/svg">
<path d="M152 62.0252C89.2 62.8252 25.8333 103.025 2 123.025V746.525H1462V380.025C1379 289.525 1218.5 236.025 1078 244.025C937.5 252.025 862.76 303.785 784 314.525C751 319.025 685.5 308.025 655.5 244.025C622.642 173.928 578 155.906 551.5 142.525C501 117.025 367.5 130.025 305.5 110.025C243.5 90.0252 230.5 61.0252 152 62.0252Z" fill="#171A54"/>
<path d="M152 42.0252C89.2 42.8252 25.8333 83.0252 2 103.025V726.525H1462V360.025C1379 269.525 1218.5 216.025 1078 224.025C937.5 232.025 862.76 283.785 784 294.525C751 299.025 685.5 288.025 655.5 224.025C622.642 153.928 578 135.906 551.5 122.525C501 97.0252 367.5 110.025 305.5 90.0252C243.5 70.0252 230.5 41.0252 152 42.0252Z" stroke="#171A54" stroke-width="3"/>
</svg>
