<svg width="1545" height="783" viewBox="0 0 1545 783" fill="none" xmlns="http://www.w3.org/2000/svg">
<path d="M136.088 633.765C88.4127 633.392 25.8446 681.483 0.519902 702.476L0.519902 768.476L1543.95 768.476L1543.95 621.976C1497.97 577.944 1380.42 572.585 1306.83 571.594C1102.83 568.846 838.011 686.394 701.471 713.733C612.024 731.643 530.633 681.095 488.31 668.207C398.964 640.998 326.311 672.327 260.806 666.064C198.989 660.154 195.682 634.23 136.088 633.765Z" fill="#24579B"/>
<path d="M137.006 619.628C89.3304 619.255 25.8678 667.346 0.543192 688.339L0.543192 754.339L1543.93 754.339L1543.93 607.839C1497.95 563.807 1381.34 558.448 1307.74 557.457C1103.74 554.709 838.929 672.257 702.389 699.596C612.942 717.506 531.55 666.958 489.228 654.07C399.881 626.861 327.229 658.19 261.724 651.927C199.907 646.017 196.6 620.093 137.006 619.628Z" stroke="#24579B"/>
<path d="M137.253 648.43C89.6028 646.829 25.8967 687.117 0 707.461V783H1545V672.942C1500.25 627.719 1382.89 619.301 1309.34 616.413C1105.48 608.409 837.501 719.153 700.248 742.979C610.335 758.587 530.365 705.933 488.413 691.952C399.846 662.437 322.673 691.452 261.039 683.948C199.405 676.444 196.815 650.431 137.253 648.43Z" fill="#050B1B"/>
</svg>
